<mxfile host="Electron" agent="Mozilla/5.0 (Windows NT 10.0; Win64; x64) AppleWebKit/537.36 (KHTML, like Gecko) draw.io/28.0.6 Chrome/138.0.7204.100 Electron/37.2.3 Safari/537.36" version="28.0.6">
  <diagram name="1 overall" id="DF3_1e9tmmYLWRm8exy_">
    <mxGraphModel dx="1042" dy="626" grid="1" gridSize="10" guides="1" tooltips="1" connect="1" arrows="1" fold="1" page="1" pageScale="1" pageWidth="827" pageHeight="1169" math="0" shadow="0">
      <root>
        <mxCell id="0" />
        <mxCell id="1" parent="0" />
        <mxCell id="d8xvdP2riUg8wV2HLTiP-3" value="Overall Application" style="shape=umlFrame;whiteSpace=wrap;html=1;pointerEvents=0;width=120;height=30;labelBackgroundColor=none;" parent="1" vertex="1">
          <mxGeometry x="130" y="20" width="540" height="1040" as="geometry" />
        </mxCell>
        <mxCell id="d8xvdP2riUg8wV2HLTiP-12" style="rounded=0;orthogonalLoop=1;jettySize=auto;html=1;labelBackgroundColor=none;fontColor=default;" parent="1" source="d8xvdP2riUg8wV2HLTiP-4" target="d8xvdP2riUg8wV2HLTiP-9" edge="1">
          <mxGeometry relative="1" as="geometry" />
        </mxCell>
        <mxCell id="d8xvdP2riUg8wV2HLTiP-13" style="edgeStyle=none;shape=connector;rounded=0;orthogonalLoop=1;jettySize=auto;html=1;align=center;verticalAlign=middle;fontFamily=Helvetica;fontSize=11;fontColor=default;labelBackgroundColor=none;endArrow=classic;" parent="1" source="d8xvdP2riUg8wV2HLTiP-4" target="d8xvdP2riUg8wV2HLTiP-10" edge="1">
          <mxGeometry relative="1" as="geometry" />
        </mxCell>
        <mxCell id="d8xvdP2riUg8wV2HLTiP-16" style="edgeStyle=none;shape=connector;rounded=0;orthogonalLoop=1;jettySize=auto;html=1;align=center;verticalAlign=middle;fontFamily=Helvetica;fontSize=11;fontColor=default;labelBackgroundColor=none;endArrow=classic;" parent="1" source="d8xvdP2riUg8wV2HLTiP-4" target="d8xvdP2riUg8wV2HLTiP-15" edge="1">
          <mxGeometry relative="1" as="geometry" />
        </mxCell>
        <mxCell id="n1kEqeV-wWVZ8ENbmuxO-5" style="rounded=0;orthogonalLoop=1;jettySize=auto;html=1;" parent="1" source="d8xvdP2riUg8wV2HLTiP-4" target="n1kEqeV-wWVZ8ENbmuxO-4" edge="1">
          <mxGeometry relative="1" as="geometry" />
        </mxCell>
        <mxCell id="d8xvdP2riUg8wV2HLTiP-4" value="System Admin" style="shape=umlActor;verticalLabelPosition=bottom;verticalAlign=top;html=1;labelBackgroundColor=none;" parent="1" vertex="1">
          <mxGeometry x="50" y="90" width="30" height="60" as="geometry" />
        </mxCell>
        <mxCell id="d8xvdP2riUg8wV2HLTiP-18" style="edgeStyle=none;shape=connector;rounded=0;orthogonalLoop=1;jettySize=auto;html=1;align=center;verticalAlign=middle;fontFamily=Helvetica;fontSize=11;fontColor=default;labelBackgroundColor=none;endArrow=classic;" parent="1" source="d8xvdP2riUg8wV2HLTiP-5" target="d8xvdP2riUg8wV2HLTiP-11" edge="1">
          <mxGeometry relative="1" as="geometry" />
        </mxCell>
        <mxCell id="d8xvdP2riUg8wV2HLTiP-19" style="edgeStyle=none;shape=connector;rounded=0;orthogonalLoop=1;jettySize=auto;html=1;align=center;verticalAlign=middle;fontFamily=Helvetica;fontSize=11;fontColor=default;labelBackgroundColor=none;endArrow=classic;" parent="1" source="d8xvdP2riUg8wV2HLTiP-5" target="d8xvdP2riUg8wV2HLTiP-17" edge="1">
          <mxGeometry relative="1" as="geometry" />
        </mxCell>
        <mxCell id="d8xvdP2riUg8wV2HLTiP-5" value="Organization Admin" style="shape=umlActor;verticalLabelPosition=bottom;verticalAlign=top;html=1;labelBackgroundColor=none;" parent="1" vertex="1">
          <mxGeometry x="50" y="260" width="30" height="60" as="geometry" />
        </mxCell>
        <mxCell id="d8xvdP2riUg8wV2HLTiP-21" style="edgeStyle=none;shape=connector;rounded=0;orthogonalLoop=1;jettySize=auto;html=1;align=center;verticalAlign=middle;fontFamily=Helvetica;fontSize=11;fontColor=default;labelBackgroundColor=none;endArrow=classic;" parent="1" source="d8xvdP2riUg8wV2HLTiP-6" target="d8xvdP2riUg8wV2HLTiP-14" edge="1">
          <mxGeometry relative="1" as="geometry" />
        </mxCell>
        <mxCell id="d8xvdP2riUg8wV2HLTiP-22" style="edgeStyle=none;shape=connector;rounded=0;orthogonalLoop=1;jettySize=auto;html=1;align=center;verticalAlign=middle;fontFamily=Helvetica;fontSize=11;fontColor=default;labelBackgroundColor=none;endArrow=classic;" parent="1" source="d8xvdP2riUg8wV2HLTiP-6" target="d8xvdP2riUg8wV2HLTiP-20" edge="1">
          <mxGeometry relative="1" as="geometry" />
        </mxCell>
        <mxCell id="d8xvdP2riUg8wV2HLTiP-6" value="HR Admin" style="shape=umlActor;verticalLabelPosition=bottom;verticalAlign=top;html=1;labelBackgroundColor=none;" parent="1" vertex="1">
          <mxGeometry x="50" y="390" width="30" height="60" as="geometry" />
        </mxCell>
        <mxCell id="d8xvdP2riUg8wV2HLTiP-29" style="edgeStyle=none;shape=connector;rounded=0;orthogonalLoop=1;jettySize=auto;html=1;align=center;verticalAlign=middle;fontFamily=Helvetica;fontSize=11;fontColor=default;labelBackgroundColor=none;endArrow=classic;" parent="1" source="d8xvdP2riUg8wV2HLTiP-7" target="d8xvdP2riUg8wV2HLTiP-25" edge="1">
          <mxGeometry relative="1" as="geometry" />
        </mxCell>
        <mxCell id="d8xvdP2riUg8wV2HLTiP-37" style="edgeStyle=none;shape=connector;rounded=0;orthogonalLoop=1;jettySize=auto;html=1;align=center;verticalAlign=middle;fontFamily=Helvetica;fontSize=11;fontColor=default;labelBackgroundColor=none;endArrow=classic;" parent="1" source="d8xvdP2riUg8wV2HLTiP-7" target="d8xvdP2riUg8wV2HLTiP-33" edge="1">
          <mxGeometry relative="1" as="geometry" />
        </mxCell>
        <mxCell id="d8xvdP2riUg8wV2HLTiP-38" style="edgeStyle=none;shape=connector;rounded=0;orthogonalLoop=1;jettySize=auto;html=1;align=center;verticalAlign=middle;fontFamily=Helvetica;fontSize=11;fontColor=default;labelBackgroundColor=none;endArrow=classic;" parent="1" source="d8xvdP2riUg8wV2HLTiP-7" target="d8xvdP2riUg8wV2HLTiP-34" edge="1">
          <mxGeometry relative="1" as="geometry" />
        </mxCell>
        <mxCell id="VJzT8ahPr1nSc4IZLgQD-3" style="rounded=0;orthogonalLoop=1;jettySize=auto;html=1;" edge="1" parent="1" source="d8xvdP2riUg8wV2HLTiP-7" target="VJzT8ahPr1nSc4IZLgQD-2">
          <mxGeometry relative="1" as="geometry" />
        </mxCell>
        <mxCell id="d8xvdP2riUg8wV2HLTiP-7" value="Person user" style="shape=umlActor;verticalLabelPosition=bottom;verticalAlign=top;html=1;labelBackgroundColor=none;" parent="1" vertex="1">
          <mxGeometry x="50" y="920" width="30" height="60" as="geometry" />
        </mxCell>
        <mxCell id="d8xvdP2riUg8wV2HLTiP-27" style="edgeStyle=none;shape=connector;rounded=0;orthogonalLoop=1;jettySize=auto;html=1;align=center;verticalAlign=middle;fontFamily=Helvetica;fontSize=11;fontColor=default;labelBackgroundColor=none;endArrow=classic;" parent="1" source="d8xvdP2riUg8wV2HLTiP-8" target="d8xvdP2riUg8wV2HLTiP-23" edge="1">
          <mxGeometry relative="1" as="geometry" />
        </mxCell>
        <mxCell id="d8xvdP2riUg8wV2HLTiP-35" style="edgeStyle=none;shape=connector;rounded=0;orthogonalLoop=1;jettySize=auto;html=1;align=center;verticalAlign=middle;fontFamily=Helvetica;fontSize=11;fontColor=default;labelBackgroundColor=none;endArrow=classic;" parent="1" source="d8xvdP2riUg8wV2HLTiP-8" target="d8xvdP2riUg8wV2HLTiP-24" edge="1">
          <mxGeometry relative="1" as="geometry" />
        </mxCell>
        <mxCell id="d8xvdP2riUg8wV2HLTiP-36" style="edgeStyle=none;shape=connector;rounded=0;orthogonalLoop=1;jettySize=auto;html=1;align=center;verticalAlign=middle;fontFamily=Helvetica;fontSize=11;fontColor=default;labelBackgroundColor=none;endArrow=classic;" parent="1" source="d8xvdP2riUg8wV2HLTiP-8" target="d8xvdP2riUg8wV2HLTiP-32" edge="1">
          <mxGeometry relative="1" as="geometry" />
        </mxCell>
        <mxCell id="VJzT8ahPr1nSc4IZLgQD-4" style="rounded=0;orthogonalLoop=1;jettySize=auto;html=1;" edge="1" parent="1" source="d8xvdP2riUg8wV2HLTiP-8" target="VJzT8ahPr1nSc4IZLgQD-1">
          <mxGeometry relative="1" as="geometry" />
        </mxCell>
        <mxCell id="d8xvdP2riUg8wV2HLTiP-8" value="Organization User" style="shape=umlActor;verticalLabelPosition=bottom;verticalAlign=top;html=1;labelBackgroundColor=none;" parent="1" vertex="1">
          <mxGeometry x="720" y="700" width="30" height="60" as="geometry" />
        </mxCell>
        <mxCell id="d8xvdP2riUg8wV2HLTiP-9" value="CRUD Organization Admin Account" style="ellipse;whiteSpace=wrap;html=1;gradientDirection=east;labelBackgroundColor=none;gradientColor=#FCFF96;fillColor=#7BF1FF;strokeColor=none;" parent="1" vertex="1">
          <mxGeometry x="240" y="30" width="140" height="70" as="geometry" />
        </mxCell>
        <mxCell id="d8xvdP2riUg8wV2HLTiP-10" value="CRUD HR Admin Account" style="ellipse;whiteSpace=wrap;html=1;gradientDirection=east;labelBackgroundColor=none;gradientColor=#FCFF96;fillColor=#7BF1FF;strokeColor=none;" parent="1" vertex="1">
          <mxGeometry x="420" y="60" width="140" height="70" as="geometry" />
        </mxCell>
        <mxCell id="d8xvdP2riUg8wV2HLTiP-11" value="CRUD Organization Account and Info" style="ellipse;whiteSpace=wrap;html=1;gradientDirection=east;labelBackgroundColor=none;gradientColor=#FCFF96;fillColor=#7BF1FF;strokeColor=none;" parent="1" vertex="1">
          <mxGeometry x="420" y="220" width="140" height="70" as="geometry" />
        </mxCell>
        <mxCell id="d8xvdP2riUg8wV2HLTiP-14" value="&lt;span&gt;CRUD &lt;/span&gt;&lt;span&gt;Person&amp;nbsp;&lt;/span&gt;&lt;div&gt;&lt;span style=&quot;color: light-dark(rgb(0, 0, 0), rgb(255, 255, 255));&quot;&gt;Account &lt;/span&gt;&lt;span style=&quot;color: light-dark(rgb(0, 0, 0), rgb(255, 255, 255));&quot;&gt;and I&lt;/span&gt;&lt;span style=&quot;color: light-dark(rgb(0, 0, 0), rgb(255, 255, 255));&quot;&gt;nfo&lt;/span&gt;&lt;/div&gt;" style="ellipse;whiteSpace=wrap;html=1;fontFamily=Helvetica;fontSize=11;labelBackgroundColor=none;gradientDirection=east;gradientColor=#FCFF96;fillColor=#7BF1FF;strokeColor=none;" parent="1" vertex="1">
          <mxGeometry x="420" y="350" width="140" height="70" as="geometry" />
        </mxCell>
        <mxCell id="d8xvdP2riUg8wV2HLTiP-15" value="Login as System Admin Role" style="ellipse;whiteSpace=wrap;html=1;fontFamily=Helvetica;fontSize=11;labelBackgroundColor=none;gradientDirection=east;gradientColor=#FCFF96;fillColor=#7BF1FF;strokeColor=none;" parent="1" vertex="1">
          <mxGeometry x="240" y="160" width="140" height="70" as="geometry" />
        </mxCell>
        <mxCell id="d8xvdP2riUg8wV2HLTiP-17" value="Login as&amp;nbsp;&lt;div&gt;Organization Admin Role&lt;/div&gt;" style="ellipse;whiteSpace=wrap;html=1;fontFamily=Helvetica;fontSize=11;labelBackgroundColor=none;gradientDirection=east;gradientColor=#FCFF96;fillColor=#7BF1FF;strokeColor=none;" parent="1" vertex="1">
          <mxGeometry x="240" y="290" width="140" height="70" as="geometry" />
        </mxCell>
        <mxCell id="d8xvdP2riUg8wV2HLTiP-20" value="Login as HR Admin Role" style="ellipse;whiteSpace=wrap;html=1;fontFamily=Helvetica;fontSize=11;labelBackgroundColor=none;gradientDirection=east;gradientColor=#FCFF96;fillColor=#7BF1FF;strokeColor=none;" parent="1" vertex="1">
          <mxGeometry x="240" y="420" width="140" height="70" as="geometry" />
        </mxCell>
        <mxCell id="d8xvdP2riUg8wV2HLTiP-41" value="have" style="edgeStyle=none;shape=connector;rounded=0;orthogonalLoop=1;jettySize=auto;html=1;align=center;verticalAlign=middle;fontFamily=Helvetica;fontSize=11;fontColor=default;labelBackgroundColor=none;endArrow=ERmany;endFill=0;endSize=12;" parent="1" source="d8xvdP2riUg8wV2HLTiP-23" target="d8xvdP2riUg8wV2HLTiP-24" edge="1">
          <mxGeometry x="-0.578" y="-6" relative="1" as="geometry">
            <mxPoint as="offset" />
          </mxGeometry>
        </mxCell>
        <mxCell id="d8xvdP2riUg8wV2HLTiP-23" value="CRUD Self Role" style="ellipse;whiteSpace=wrap;html=1;fontFamily=Helvetica;fontSize=11;labelBackgroundColor=none;gradientDirection=east;gradientColor=#FCFF96;fillColor=#7BF1FF;strokeColor=none;" parent="1" vertex="1">
          <mxGeometry x="420" y="630" width="140" height="70" as="geometry" />
        </mxCell>
        <mxCell id="d8xvdP2riUg8wV2HLTiP-42" value="have" style="edgeStyle=none;shape=connector;rounded=0;orthogonalLoop=1;jettySize=auto;html=1;align=center;verticalAlign=middle;fontFamily=Helvetica;fontSize=11;fontColor=default;labelBackgroundColor=none;endArrow=ERmany;endFill=0;endSize=12;" parent="1" source="d8xvdP2riUg8wV2HLTiP-24" target="d8xvdP2riUg8wV2HLTiP-32" edge="1">
          <mxGeometry x="-0.5814" y="-8" relative="1" as="geometry">
            <mxPoint as="offset" />
          </mxGeometry>
        </mxCell>
        <mxCell id="d8xvdP2riUg8wV2HLTiP-24" value="CRUD Self&amp;nbsp;&lt;div&gt;Communication Event&lt;/div&gt;" style="ellipse;whiteSpace=wrap;html=1;fontFamily=Helvetica;fontSize=11;labelBackgroundColor=none;gradientDirection=east;gradientColor=#FCFF96;fillColor=#7BF1FF;strokeColor=none;" parent="1" vertex="1">
          <mxGeometry x="180" y="695" width="140" height="70" as="geometry" />
        </mxCell>
        <mxCell id="d8xvdP2riUg8wV2HLTiP-43" value="have" style="edgeStyle=none;shape=connector;rounded=0;orthogonalLoop=1;jettySize=auto;html=1;align=center;verticalAlign=middle;fontFamily=Helvetica;fontSize=11;fontColor=default;labelBackgroundColor=none;endArrow=ERmany;endFill=0;endSize=12;" parent="1" source="d8xvdP2riUg8wV2HLTiP-25" target="d8xvdP2riUg8wV2HLTiP-33" edge="1">
          <mxGeometry x="-0.4865" y="-2" relative="1" as="geometry">
            <mxPoint as="offset" />
          </mxGeometry>
        </mxCell>
        <mxCell id="d8xvdP2riUg8wV2HLTiP-25" value="CRUD Self Role" style="ellipse;whiteSpace=wrap;html=1;fontFamily=Helvetica;fontSize=11;labelBackgroundColor=none;gradientDirection=east;gradientColor=#FCFF96;fillColor=#7BF1FF;strokeColor=none;" parent="1" vertex="1">
          <mxGeometry x="240" y="835" width="140" height="70" as="geometry" />
        </mxCell>
        <mxCell id="d8xvdP2riUg8wV2HLTiP-32" value="CRUD Self&amp;nbsp;&lt;div&gt;Communication&lt;/div&gt;&lt;div&gt;Event Purpose&lt;/div&gt;" style="ellipse;whiteSpace=wrap;html=1;fontFamily=Helvetica;fontSize=11;labelBackgroundColor=none;gradientDirection=east;gradientColor=#FCFF96;fillColor=#7BF1FF;strokeColor=none;" parent="1" vertex="1">
          <mxGeometry x="420" y="765" width="140" height="70" as="geometry" />
        </mxCell>
        <mxCell id="d8xvdP2riUg8wV2HLTiP-44" value="have" style="edgeStyle=none;shape=connector;rounded=0;orthogonalLoop=1;jettySize=auto;html=1;align=center;verticalAlign=middle;fontFamily=Helvetica;fontSize=11;fontColor=default;labelBackgroundColor=none;endArrow=ERmany;endFill=0;endSize=12;" parent="1" source="d8xvdP2riUg8wV2HLTiP-33" target="d8xvdP2riUg8wV2HLTiP-34" edge="1">
          <mxGeometry x="-0.0004" relative="1" as="geometry">
            <mxPoint as="offset" />
          </mxGeometry>
        </mxCell>
        <mxCell id="d8xvdP2riUg8wV2HLTiP-33" value="CRUD Self&amp;nbsp;&lt;div&gt;Communication Event&lt;/div&gt;" style="ellipse;whiteSpace=wrap;html=1;fontFamily=Helvetica;fontSize=11;labelBackgroundColor=none;gradientDirection=east;gradientColor=#FCFF96;fillColor=#7BF1FF;strokeColor=none;" parent="1" vertex="1">
          <mxGeometry x="480" y="910" width="140" height="70" as="geometry" />
        </mxCell>
        <mxCell id="d8xvdP2riUg8wV2HLTiP-34" value="CRUD Self&amp;nbsp;&lt;div&gt;Communication&lt;/div&gt;&lt;div&gt;Event Purpose&lt;/div&gt;" style="ellipse;whiteSpace=wrap;html=1;fontFamily=Helvetica;fontSize=11;labelBackgroundColor=none;gradientDirection=east;gradientColor=#FCFF96;fillColor=#7BF1FF;strokeColor=none;" parent="1" vertex="1">
          <mxGeometry x="240" y="980" width="140" height="70" as="geometry" />
        </mxCell>
        <mxCell id="n1kEqeV-wWVZ8ENbmuxO-4" value="CRUD Base Type Admin Account" style="ellipse;whiteSpace=wrap;html=1;gradientDirection=east;labelBackgroundColor=none;gradientColor=#FCFF96;fillColor=#7BF1FF;strokeColor=none;" parent="1" vertex="1">
          <mxGeometry x="490" y="140" width="140" height="70" as="geometry" />
        </mxCell>
        <mxCell id="n1kEqeV-wWVZ8ENbmuxO-12" style="edgeStyle=none;shape=connector;rounded=0;orthogonalLoop=1;jettySize=auto;html=1;align=center;verticalAlign=middle;fontFamily=Helvetica;fontSize=11;fontColor=default;labelBackgroundColor=none;endArrow=classic;" parent="1" source="n1kEqeV-wWVZ8ENbmuxO-14" target="n1kEqeV-wWVZ8ENbmuxO-15" edge="1">
          <mxGeometry relative="1" as="geometry" />
        </mxCell>
        <mxCell id="n1kEqeV-wWVZ8ENbmuxO-13" style="edgeStyle=none;shape=connector;rounded=0;orthogonalLoop=1;jettySize=auto;html=1;align=center;verticalAlign=middle;fontFamily=Helvetica;fontSize=11;fontColor=default;labelBackgroundColor=none;endArrow=classic;" parent="1" source="n1kEqeV-wWVZ8ENbmuxO-14" target="n1kEqeV-wWVZ8ENbmuxO-16" edge="1">
          <mxGeometry relative="1" as="geometry" />
        </mxCell>
        <mxCell id="n1kEqeV-wWVZ8ENbmuxO-14" value="Base Type Admin" style="shape=umlActor;verticalLabelPosition=bottom;verticalAlign=top;html=1;labelBackgroundColor=none;" parent="1" vertex="1">
          <mxGeometry x="55" y="530" width="30" height="60" as="geometry" />
        </mxCell>
        <mxCell id="n1kEqeV-wWVZ8ENbmuxO-15" value="&lt;span&gt;CRUD &lt;/span&gt;&lt;span&gt;Base Type&amp;nbsp;&lt;/span&gt;&lt;span style=&quot;background-color: transparent; color: light-dark(rgb(0, 0, 0), rgb(255, 255, 255));&quot;&gt;Data&lt;/span&gt;" style="ellipse;whiteSpace=wrap;html=1;fontFamily=Helvetica;fontSize=11;labelBackgroundColor=none;gradientDirection=east;gradientColor=#FCFF96;fillColor=#7BF1FF;strokeColor=none;" parent="1" vertex="1">
          <mxGeometry x="425" y="490" width="140" height="70" as="geometry" />
        </mxCell>
        <mxCell id="n1kEqeV-wWVZ8ENbmuxO-16" value="Login as Base Type Admin Role" style="ellipse;whiteSpace=wrap;html=1;fontFamily=Helvetica;fontSize=11;labelBackgroundColor=none;gradientDirection=east;gradientColor=#FCFF96;fillColor=#7BF1FF;strokeColor=none;" parent="1" vertex="1">
          <mxGeometry x="245" y="560" width="140" height="70" as="geometry" />
        </mxCell>
        <mxCell id="VJzT8ahPr1nSc4IZLgQD-1" value="Login Self Account" style="ellipse;whiteSpace=wrap;html=1;fontFamily=Helvetica;fontSize=11;labelBackgroundColor=none;gradientDirection=east;gradientColor=#FCFF96;fillColor=#7BF1FF;strokeColor=none;" vertex="1" parent="1">
          <mxGeometry x="520" y="560" width="140" height="70" as="geometry" />
        </mxCell>
        <mxCell id="VJzT8ahPr1nSc4IZLgQD-2" value="Login Self Account" style="ellipse;whiteSpace=wrap;html=1;fontFamily=Helvetica;fontSize=11;labelBackgroundColor=none;gradientDirection=east;gradientColor=#FCFF96;fillColor=#7BF1FF;strokeColor=none;" vertex="1" parent="1">
          <mxGeometry x="140" y="770" width="140" height="70" as="geometry" />
        </mxCell>
      </root>
    </mxGraphModel>
  </diagram>
</mxfile>
